<svg width="41" height="56" viewBox="0 0 41 56" fill="none" xmlns="http://www.w3.org/2000/svg">
<path d="M17.2132 47.1495C24.4347 45.8208 32.5295 50.264 27.7637 53.1582C25.8098 54.4072 22.5477 55.1606 19.184 55.0557C15.1135 54.9417 11.7981 53.6096 10.9041 51.8272C9.94736 49.9198 12.8487 47.5747 17.2132 47.1495Z" fill="#F5F7FA"/>
<path d="M12.4571 15.8909C12.4636 16.4579 12.3219 16.9877 12.2314 17.5405C12.089 18.4107 12.1608 19.4418 12.6105 20.1989C12.9237 20.7262 13.4402 21.3538 14.0307 21.4753C14.2925 21.5314 14.5637 21.4675 14.7818 21.298C15.066 21.074 15.1803 20.7166 15.2247 20.3485C15.2751 19.9302 15.2375 19.4916 15.2083 19.0722C15.1235 17.8566 14.9253 16.6718 14.7513 15.4711C14.6128 14.5161 14.5013 13.5224 14.423 12.5591C14.358 11.7578 14.4036 10.9119 14.5124 10.1173C14.823 7.84873 16.054 6.01451 17.4306 4.37885C18.1907 3.4607 19.0285 2.62483 19.9325 1.88257C21.2903 0.786125 23.1548 -0.257303 24.8848 0.0566775C25.0739 0.0910067 25.2396 0.143009 25.3556 0.319326C25.382 0.444322 25.3578 0.525313 25.3052 0.636668C25.1773 0.907593 24.9792 1.16327 24.819 1.41332C24.4285 2.0224 24.0769 2.66137 23.8539 3.36973C23.584 4.2267 23.4082 5.21723 23.4977 6.12653C23.5517 6.67592 23.6914 7.24989 23.8978 7.75352C24.2965 8.72616 25.2346 10.0456 25.9014 10.8308C26.3489 11.3578 26.8309 11.8523 27.2839 12.3746C27.6326 12.7764 27.9599 13.1983 28.2857 13.6226C29.6199 15.3601 30.81 17.3302 31.7095 19.3814C33.017 22.3629 33.8419 25.7895 33.6489 29.1263C33.5455 30.9147 33.1524 32.7834 32.618 34.4709C30.9733 39.664 27.5717 43.2447 23.7644 46.5759C23.2316 47.0439 22.693 47.5036 22.1485 47.9548C21.8789 48.1826 21.5836 48.4873 21.2799 48.6488C21.0704 48.8641 20.8128 49.067 20.5616 49.2186C20.2896 49.4484 19.9963 49.6827 19.6636 49.788C18.8284 49.2985 17.81 48.2241 17.0547 47.5436C15.3676 46.0238 13.666 44.5129 12.0413 42.912C11.2491 42.1314 10.4621 41.3451 9.7387 40.4852C8.97871 39.5819 8.31389 38.5677 7.72398 37.5232C6.24772 34.9097 5.30991 31.4503 5.35194 28.3616C5.36608 27.3199 5.50263 26.2622 5.7168 25.2486C6.17265 23.0918 6.83254 21.0173 8.05547 19.2399C8.39796 18.7422 8.79092 18.3006 9.15161 17.8214C9.69558 17.0985 10.2885 16.2535 11.0229 15.7557C11.3144 15.5582 11.6928 15.3829 12.0376 15.4863C12.2529 15.5508 12.351 15.684 12.4571 15.8909Z" fill="#FF8800"/>
<g opacity="0.15" style="mix-blend-mode:plus-lighter">
<path d="M15.9483 28.6161C15.9516 28.9013 15.8804 29.1679 15.8349 29.446C15.7633 29.8838 15.7994 30.4026 16.0254 30.7834C16.1829 31.0487 16.4426 31.3645 16.7395 31.4256C16.8711 31.4539 17.0074 31.4217 17.1171 31.3364C17.26 31.2237 17.3174 31.0439 17.3397 30.8587C17.3651 30.6483 17.3462 30.4276 17.3315 30.2166C17.2889 29.605 17.1892 29.009 17.1017 28.4049C17.0321 27.9244 16.976 27.4245 16.9367 26.9399C16.904 26.5367 16.9269 26.1111 16.9816 25.7114C17.1378 24.57 17.7567 23.6472 18.4488 22.8243C18.831 22.3624 19.2521 21.9419 19.7066 21.5684C20.3893 21.0168 21.3267 20.4919 22.1964 20.6498C22.2915 20.6671 22.3748 20.6933 22.4331 20.782C22.4464 20.8448 22.4343 20.8856 22.4078 20.9416C22.3435 21.0779 22.2439 21.2066 22.1633 21.3324C21.967 21.6388 21.7903 21.9603 21.6781 22.3166C21.5424 22.7478 21.454 23.2461 21.499 23.7036C21.5262 23.98 21.5964 24.2688 21.7002 24.5221C21.9006 25.0115 22.3723 25.6753 22.7075 26.0703C22.9325 26.3355 23.1748 26.5843 23.4026 26.847C23.5779 27.0492 23.7424 27.2614 23.9062 27.4749C24.577 28.349 25.1753 29.3402 25.6276 30.3722C26.2849 31.8722 26.6997 33.5961 26.6026 35.2749C26.5506 36.1746 26.353 37.1147 26.0844 37.9637C25.2575 40.5764 23.5473 42.3779 21.6331 44.0538C21.3653 44.2893 21.0945 44.5205 20.8207 44.7475C20.6852 44.8622 20.5367 45.0155 20.384 45.0967C20.2787 45.205 20.1492 45.3071 20.0229 45.3834C19.8862 45.499 19.7387 45.6169 19.5715 45.6699C19.1515 45.4236 18.6395 44.883 18.2598 44.5407C17.4116 43.7761 16.5561 43.0159 15.7393 42.2105C15.341 41.8178 14.9453 41.4222 14.5816 40.9896C14.1996 40.5351 13.8653 40.0249 13.5687 39.4994C12.8265 38.1845 12.355 36.4441 12.3762 34.8902C12.3833 34.3661 12.4519 33.8339 12.5596 33.324C12.7888 32.2389 13.1205 31.1952 13.7354 30.301C13.9076 30.0506 14.1051 29.8284 14.2865 29.5873C14.56 29.2236 14.8581 28.7985 15.2273 28.5481C15.3738 28.4487 15.5641 28.3605 15.7374 28.4125C15.8457 28.445 15.895 28.512 15.9483 28.6161Z" fill="#FFB635"/>
</g>
<g opacity="0.15" style="mix-blend-mode:plus-lighter">
<path d="M19.758 24.1657C19.8172 24.5634 19.9246 24.9637 20.0765 25.3344C20.3977 26.1186 21.0273 26.9698 21.4075 27.4178L21.4076 27.4179C21.5453 27.5802 21.6837 27.7321 21.8002 27.8595C21.9237 27.9946 22.0219 28.1016 22.1157 28.2098L22.1158 28.2099C22.2496 28.3643 22.3829 28.5352 22.5469 28.7489C23.1296 29.5082 23.6424 30.3613 24.0235 31.2308C24.5857 32.5137 24.8964 33.8965 24.824 35.1498C24.7844 35.8344 24.6292 36.5962 24.402 37.3142C23.7503 39.3732 22.3856 40.8829 20.5265 42.5106L20.5238 42.5129C20.2691 42.7369 20.0116 42.9568 19.7513 43.1726L19.7378 43.1839C19.7073 43.2097 19.6778 43.2355 19.6518 43.2585C19.5679 43.179 19.4777 43.094 19.3902 43.0151L19.3902 43.015L18.751 42.4395C18.1204 41.8708 17.5146 41.3182 16.9297 40.7415C16.53 40.3474 16.1917 40.007 15.8913 39.6497C15.6068 39.3113 15.3395 38.9089 15.085 38.4579L15.0849 38.4578C14.51 37.4392 14.1466 36.0674 14.1622 34.9202V34.9201C14.1671 34.5616 14.2149 34.1713 14.2992 33.7719C14.4266 33.169 14.5753 32.6547 14.7661 32.2126C14.8734 32.3583 14.9995 32.5092 15.1452 32.6525C15.3987 32.902 15.8215 33.2368 16.401 33.3598V33.36C16.4026 33.3603 16.4043 33.3606 16.406 33.3609C16.4088 33.3615 16.4116 33.3622 16.4144 33.3628V33.3626C17.0186 33.4882 17.6433 33.3388 18.1463 32.9477C18.1495 32.9452 18.1527 32.9427 18.1559 32.9402C18.8899 32.3615 19.0618 31.5222 19.1104 31.1192V31.119C19.159 30.7152 19.1313 30.3149 19.1174 30.1309L19.1125 30.0659C19.0626 29.3496 18.9439 28.6347 18.8656 28.0942C18.8105 27.7139 18.7645 27.3182 18.7299 26.9303L18.7159 26.7645C18.6989 26.555 18.7088 26.2919 18.7479 26.0062V26.0061C18.8207 25.4738 19.1255 24.9178 19.758 24.1657Z" fill="url(#paint0_linear_2_15107)"/>
</g>
<path d="M7.56331 44.9987C6.18196 44.2206 4.78178 43.0717 3.62725 41.9377C2.25079 40.5861 -1.61299 35.4872 0.747094 33.7239C3.3293 31.7953 8.0097 43.1136 9.95371 44.9362C10.2095 45.1813 10.5972 45.3246 10.7861 45.6409C10.8271 46.8454 8.43138 45.7296 7.56331 44.9987Z" fill="#43A3C9"/>
<path d="M31.443 1.98416C33.8995 0.885863 36.653 4.55856 35.0319 6.95083C34.3673 7.98327 33.2576 8.60602 32.1134 8.51927C30.7288 8.42508 29.6011 7.32397 29.297 5.85068C28.9715 4.27407 29.9584 2.33561 31.443 1.98416Z" fill="#55ABCC"/>
<path d="M30.5087 3.04379C30.5333 3.05755 30.5521 3.08057 30.5725 3.10091C30.5775 3.19851 30.5178 3.28523 30.4761 3.36789L30.4277 3.35999C30.4086 3.27399 30.4801 3.1298 30.5087 3.04379Z" fill="#55ABCC"/>
<path d="M38.2733 34.8866C38.3252 34.8856 38.316 34.8844 38.364 34.8883C38.7167 34.9175 39.2446 35.1071 39.4741 35.4152C39.568 35.5411 39.6052 35.693 39.5872 35.8544C39.5525 36.1636 39.3611 36.4249 39.1585 36.6278C38.7689 37.0182 38.2993 37.3299 37.8652 37.6557C37.1184 38.2162 36.364 38.768 35.6222 39.3364C34.8216 39.95 34.0959 40.677 33.321 41.3286C33.1814 41.4488 32.6683 41.8768 32.5106 41.8801C32.4486 41.8248 32.4171 41.7484 32.4118 41.6605C32.3703 40.9741 33.618 39.0202 34.0523 38.4303C34.8929 37.2884 36.9256 35.0381 38.2733 34.8866Z" fill="#FE9501"/>
<path d="M38.6382 26.2653C38.8293 26.2505 39.0161 26.2409 39.2051 26.2838C39.5339 26.3584 39.9218 26.5901 40.1054 26.9137C40.2306 27.1343 40.244 27.3863 40.1877 27.6347C39.9348 28.7504 38.2588 30.2313 37.4003 30.8243C37.2711 30.9031 37.1469 30.9853 37.0232 31.0743C36.8693 31.1852 36.6773 31.3579 36.4887 31.3142C36.3864 31.2278 36.3422 31.1202 36.3148 30.9822C36.1412 30.1077 36.5268 28.9589 36.9369 28.2236C37.1264 27.8839 37.9031 26.7487 38.1548 26.5206C38.3012 26.3879 38.4553 26.3138 38.6382 26.2653Z" fill="#FE9501"/>
<path d="M38.088 27.3162L38.1565 27.3471L38.1731 27.4113C38.1433 27.512 38.0828 27.5752 38.0189 27.6521C37.9734 27.6198 37.9909 27.6422 37.9697 27.5818C38.0408 27.492 38.0725 27.4351 38.088 27.3162Z" fill="#FE9501"/>
<path d="M29.2616 46.0178C29.4947 45.754 29.7902 45.5702 30.1312 45.5627C30.4828 45.5549 30.8214 45.7376 31.0724 46.0007C31.4063 46.3981 31.5322 46.8332 31.4038 47.354C30.9531 48.4153 29.3038 49.1664 28.762 47.6985C28.5491 47.122 28.8676 46.4097 29.2616 46.0178Z" fill="#43A3C9"/>
<path d="M6.88894 11.7667C7.45424 11.7508 8.15847 11.9818 8.21652 12.7348C8.3504 14.4753 5.05066 15.4979 5.35841 13.2786C5.57751 12.4809 6.16516 11.9855 6.88894 11.7667Z" fill="#43A3C9"/>
<path d="M7.34828 11.9388C7.39037 12.0831 7.40385 12.2032 7.34216 12.3445C7.305 12.4297 7.26416 12.4578 7.18476 12.4849C7.11456 12.4595 7.11429 12.4505 7.0722 12.3821C7.07675 12.3663 7.10606 12.3308 7.11581 12.3171L7.17826 12.3572C7.30842 12.3224 7.25501 12.0487 7.34828 11.9388Z" fill="#43A3C9"/>
<path d="M10.8672 4.76527C11.3065 4.73959 11.6878 4.9566 11.9858 5.30987C12.4492 5.85914 12.6295 6.60051 12.6054 7.33589C12.3063 7.83165 11.7848 7.64388 11.3692 7.42662C10.5654 7.00644 9.60576 5.23382 10.8672 4.76527Z" fill="#FE9501"/>
<path d="M36.4274 11.9766C36.6291 11.9573 36.8122 11.9359 36.9901 12.0693C37.0819 12.1381 37.1382 12.2401 37.1588 12.3598C37.2236 12.7349 37.0421 13.2069 36.8448 13.5075C36.4953 14.04 35.9556 14.423 35.3684 14.5269C35.2059 14.5464 35.022 14.5266 34.8758 14.4402C34.7792 14.3843 34.7071 14.2876 34.6758 14.1722C34.5849 13.8428 34.7836 13.4188 34.9318 13.1383C35.2797 12.4798 35.7728 12.1649 36.4274 11.9766Z" fill="#FE9501"/>
<path d="M36.3399 20.0736C36.3675 20.0736 36.3952 20.073 36.4227 20.0742C36.5686 20.0801 36.6998 20.1547 36.7951 20.2775C36.8656 20.3686 36.8983 20.473 36.8819 20.5926C36.8641 20.7214 36.8036 20.7775 36.713 20.853C36.6759 20.8541 36.6567 20.8555 36.6178 20.8527C36.4697 20.8423 36.3326 20.741 36.2431 20.6134C36.1785 20.5214 36.1484 20.4144 36.1655 20.2985C36.1835 20.176 36.2551 20.1383 36.3399 20.0736Z" fill="#78B7CF"/>
<defs>
<linearGradient id="paint0_linear_2_15107" x1="19.4981" y1="24.1657" x2="19.4981" y2="43.2585" gradientUnits="userSpaceOnUse">
<stop offset="0.331731" stop-color="#E86411"/>
<stop offset="1" stop-color="#E86411"/>
</linearGradient>
</defs>
</svg>
